Coordinates
version=1
nRows=21
nColumns=22
inDegrees=yes

Units are S.I. units (second, meters, Newtons, ...)
If the header above contains a line with 'inDegrees', this indicates whether rotational values are in degrees (yes) or radians (no).

endheader
time	pelvis_tilt	pelvis_list	pelvis_rotation	pelvis_tx	pelvis_ty	pelvis_tz	hip_flexion_r	hip_adduction_r	hip_rotation_r	knee_angle_r	ankle_angle_r	subtalar_angle_r	hip_flexion_l	hip_adduction_l	hip_rotation_l	knee_angle_l	ankle_angle_l	subtalar_angle_l	lumbar_extension	lumbar_bending	lumbar_rotation
      0.01000000	     -1.12814311	     -3.19498550	     -5.00786463	      1.11125164	      0.92227184	      0.17281020	     -2.28851244	      3.15524476	      0.79684780	     -4.46988149	      3.24240466	     -0.08606999	     -1.53307024	     -5.49196260	    -13.12756318	     -9.32267282	      8.80796894	      0.51609221	     -4.46607521	     -0.45681251	      4.23654508
      0.02000000	     -1.10083394	     -3.20503249	     -5.00172697	      1.11110400	      0.92230659	      0.17279443	     -2.29829973	      3.16610373	      0.78291864	     -4.49209431	      3.31391190	     -0.22457426	     -1.54608215	     -5.50191754	    -13.11974328	     -9.33365566	      8.80021895	      0.60912677	     -4.49895736	     -0.44467702	      4.23950966
      0.03000000	     -1.08927912	     -3.20823785	     -4.99471481	      1.11092880	      0.92233172	      0.17276885	     -2.29820275	      3.16894020	      0.77952824	     -4.49248504	      3.30062429	     -0.23857064	     -1.53196051	     -5.50579626	    -13.10032234	     -9.35874773	      8.79838120	      0.61208299	     -4.51011310	     -0.43871229	      4.26287265
      0.04000000	     -1.07544139	     -3.22121346	     -4.98484257	      1.11073191	      0.92235906	      0.17273308	     -2.29675842	      3.18193288	      0.77028397	     -4.49919689	      3.29418367	     -0.25860224	     -1.51621093	     -5.52082511	    -13.08161589	     -9.39101469	      8.79929505	      0.61212590	     -4.52489812	     -0.41650453	      4.26983941
      0.05000000	     -1.06328192	     -3.24096753	     -4.97213809	      1.11052967	      0.92238077	      0.17269573	     -2.29363923	      3.20325281	      0.75011124	     -4.50645518	      3.28778485	     -0.28786241	     -1.49737263	     -5.54421513	    -13.06546971	     -9.42583822	      8.81083329	      0.60926673	     -4.53590529	     -0.38074526	      4.25756327
      0.06000000	     -1.05410149	     -3.23943917	     -4.97315279	      1.11034954	      0.92239838	      0.17266448	     -2.29082472	      3.19959265	      0.74911180	     -4.50529008	      3.28723766	     -0.28963450	     -1.49309760	     -5.53934854	    -13.06448095	     -9.42707594	      8.81165610	      0.60918738	     -4.53407336	     -0.36632682	      4.25692515
      0.07000000	     -1.05283480	     -3.26553591	     -4.96090263	      1.11012999	      0.92240387	      0.17263752	     -2.27413719	      3.22944942	      0.72578660	     -4.51525912	      3.27386183	     -0.33010102	     -1.45977309	     -5.57279537	    -13.05026711	     -9.46774743	      8.83287508	      0.60026525	     -4.53120456	     -0.31811898	      4.23075252
      0.08000000	     -1.04338375	     -3.26251594	     -4.96823669	      1.10993559	      0.92241937	      0.17262651	     -2.26930831	      3.22478583	      0.72713548	     -4.51594836	      3.27296930	     -0.33119196	     -1.45652806	     -5.56743655	    -13.04847622	     -9.46964511	      8.83254940	      0.60025466	     -4.53015537	     -0.30343569	      4.22684167
      0.09000000	     -1.03466200	     -3.26465939	     -4.97971634	      1.10971254	      0.92243700	      0.17264427	     -2.25055002	      3.22764583	      0.74693495	     -4.54176546	      3.26630512	     -0.33675113	     -1.45088112	     -5.57067828	    -13.04783732	     -9.47479177	      8.82836364	      0.59863092	     -4.53399139	     -0.28629157	      4.20072818
      0.10000000	     -1.02757845	     -3.26246011	     -4.98830497	      1.10950717	      0.92244821	      0.17264978	     -2.24274866	      3.22530171	      0.74895324	     -4.54150720	      3.26585322	     -0.33786697	     -1.44633494	     -5.56779572	    -13.04790429	     -9.47419604	      8.82733532	      0.59844333	     -4.53523150	     -0.27381075	      4.19572553
      0.11000000	     -1.02432091	     -3.26451010	     -5.00259303	      1.10929160	      0.92245978	      0.17268381	     -2.21679269	      3.22941399	      0.77872113	     -4.57225597	      3.25941183	     -0.34369889	     -1.44053280	     -5.57189018	    -13.05616209	     -9.47005149	      8.81891188	      0.59677892	     -4.53380467	     -0.26062084	      4.16390578
      0.12000000	     -1.01990574	     -3.26223884	     -5.01214658	      1.10908175	      0.92247144	      0.17270629	     -2.20615837	      3.22865412	      0.78296372	     -4.57123735	      3.25907176	     -0.34507457	     -1.43438371	     -5.57053785	    -13.05778336	     -9.46672042	      8.81683064	      0.59656188	     -4.53735772	     -0.25533792	      4.15885422
      0.13000000	     -1.02037439	     -3.25610451	     -5.02861222	      1.10887903	      0.92248093	      0.17273826	     -2.17771532	      3.22425209	      0.82285595	     -4.59928456	      3.25208673	     -0.35202380	     -1.42808359	     -5.56454900	    -13.07152539	     -9.45723275	      8.80240082	      0.59511154	     -4.53267537	     -0.25497124	      4.13071579
      0.14000000	     -1.01639205	     -3.25334006	     -5.03576786	      1.10867875	      0.92249564	      0.17275536	     -2.16885215	      3.22343979	      0.82596872	     -4.59560980	      3.25213261	     -0.35304028	     -1.42198553	     -5.56213588	    -13.07336284	     -9.45295411	      8.80016897	      0.59489579	     -4.53749586	     -0.25431956	      4.12873634
      0.15000000	     -1.03313643	     -3.21983987	     -5.07378566	      1.10847113	      0.92249277	      0.17280730	     -2.12344765	      3.18907497	      0.90298591	     -4.61492812	      3.25132705	     -0.37463741	     -1.40217991	     -5.52560445	    -13.11157792	     -9.43377358	      8.74364841	      0.58642278	     -4.51289519	     -0.28930745	      4.14261624
      0.16000000	     -1.02772817	     -3.21812501	     -5.07790713	      1.10827930	      0.92251145	      0.17280998	     -2.11581074	      3.18831394	      0.90501731	     -4.61401594	      3.25090089	     -0.37530493	     -1.39764457	     -5.52353737	    -13.11290699	     -9.42968934	      8.74350664	      0.58607568	     -4.51990318	     -0.28716486	      4.13836930
      0.17000000	     -1.01668273	     -3.21046208	     -5.08275291	      1.10806885	      0.92254130	      0.17280925	     -2.09972781	      3.17971119	      0.92828650	     -4.64078648	      3.24209461	     -0.37931187	     -1.39691511	     -5.51435243	    -13.11931138	     -9.42591019	      8.73475294	      0.58320625	     -4.53600072	     -0.29208374	      4.11375194
      0.18000000	     -1.01121792	     -3.20876111	     -5.08361898	      1.10787489	      0.92256214	      0.17280417	     -2.09205911	      3.17861627	      0.93015626	     -4.63914821	      3.24149931	     -0.37991683	     -1.39149354	     -5.51211224	    -13.12097094	     -9.42146019	      8.73276771	      0.58260704	     -4.54520291	     -0.29207291	      4.11197493
      0.19000000	     -0.99533724	     -3.19998919	     -5.08391987	      1.10765834	      0.92260092	      0.17279224	     -2.07855747	      3.16792222	      0.95048844	     -4.67044364	      3.23081625	     -0.38404808	     -1.39140676	     -5.50166951	    -13.12556477	     -9.42317142	      8.71356660	      0.57796242	     -4.57035004	     -0.30063956	      4.09078500
      0.20000000	     -0.98940280	     -3.19886976	     -5.08455113	      1.10746874	      0.92262239	      0.17278384	     -2.07127521	      3.16674919	      0.95144080	     -4.66916984	      3.23034907	     -0.38466096	     -1.38650547	     -5.49994194	    -13.12747120	     -9.41857294	      8.71069923	      0.57706021	     -4.58112876	     -0.30110822	      4.08828275
      0.21000000	     -0.96873209	     -3.19292314	     -5.08463584	      1.10726236	      0.92266678	      0.17277204	     -2.06190640	      3.15851371	      0.96740850	     -4.70376518	      3.22132634	     -0.38846537	     -1.39189427	     -5.49265015	    -13.13421797	     -9.42191933	      8.68937971	      0.57144007	     -4.61170894	     -0.30781697	      4.05965366
